<svg xmlns="http://www.w3.org/2000/svg" width="2in" height="2in" viewBox="0 0 144 144"><g fill-rule="evenodd"><path d="M88.4 90.1C80.5 95.9 69 99 59.1 99a52.8 52.8 0 0 1-35.7-13.6c-.7-.7-.1-1.6.8-1a72.1 72.1 0 0 0 35.7 9.4 69.1 69.1 0 0 0 27.3-5.6c1.4-.5 2.5.9 1.2 1.9z"/><path d="M91.7 86.4c-1-1.3-6.7-.7-9.3-.3-.7.1-.9-.6-.1-1.1 4.5-3.2 11.9-2.2 12.8-1.2s-.3 8.5-4.5 12.1c-.7.5-1.3.2-1-.5.9-2.4 3.1-7.7 2.1-9zm-9.1-23.9v-3.1a.7.7 0 0 1 .7-.7h13.9a.7.7 0 0 1 .8.7V62a4.5 4.5 0 0 1-1 2l-7.2 10.2a16.6 16.6 0 0 1 7.9 1.7 1.5 1.5 0 0 1 .7 1.2v3.3c0 .5-.5 1-1 .7a15.7 15.7 0 0 0-14.6.1.9.9 0 0 1-1-.5v-3.4a3.1 3.1 0 0 1 .5-2.1l8.4-11.9h-7.2a.8.8 0 0 1-.9-.8zM32.1 81.8h-4.2a.8.8 0 0 1-.8-.7V59.5a.7.7 0 0 1 .8-.7h3.9a.8.8 0 0 1 .8.7v2.8h.1a5.5 5.5 0 0 1 5.5-4c2.7 0 4.3 1.3 5.5 4a5.9 5.9 0 0 1 5.8-4 5.6 5.6 0 0 1 4.9 2.4c1.3 1.8 1 4.4 1 6.7v13.7a.8.8 0 0 1-.8.8h-4.2a.8.8 0 0 1-.7-.8V69.6c0-1.3 0-2.7-.1-4a2.3 2.3 0 0 0-2.5-1.9 3.1 3.1 0 0 0-2.6 1.8 13.9 13.9 0 0 0-.3 4.1v11.5a.9.9 0 0 1-.8.8h-4.2a.8.8 0 0 1-.8-.8V69.6c0-2.3.4-5.9-2.6-5.9s-2.9 3.4-2.9 5.9v11.5a.8.8 0 0 1-.8.7zM110 58.2c6.2 0 9.6 5.4 9.6 12.3s-3.8 11.8-9.7 11.8-9.4-5.4-9.4-12.1 3.4-12 9.5-12zm0 4.5c-3.1 0-3.3 4.2-3.3 6.9s0 8.2 3.3 8.2 3.4-4.5 3.4-7.3a18.1 18.1 0 0 0-.6-5.7 2.7 2.7 0 0 0-2.8-2.1zm17.7 19.1h-4.2a.8.8 0 0 1-.8-.7V59.4a.8.8 0 0 1 .8-.7h4a.9.9 0 0 1 .7.6v3.3h.1c1.2-2.9 2.8-4.3 5.7-4.3a5.6 5.6 0 0 1 5 2.5c1.1 1.7 1.1 4.6 1.1 6.7v13.7c-.1.4-.4.7-.8.6h-4.2a.9.9 0 0 1-.8-.6V69.4c0-2.4.3-5.8-2.6-5.8a2.7 2.7 0 0 0-2.5 1.7 11.4 11.4 0 0 0-.7 4.1v11.7a.8.8 0 0 1-.8.7zM71.6 71.5a10 10 0 0 1-.8 4.5 3.7 3.7 0 0 1-2.9 1.9c-1.6 0-2.6-1.3-2.6-3.1 0-3.6 3.2-4.2 6.3-4.2zm4.2 10.2a.8.8 0 0 1-1 .1 9.2 9.2 0 0 1-2.4-2.8 8.5 8.5 0 0 1-7 3.1c-3.5 0-6.3-2.2-6.3-6.6a7.3 7.3 0 0 1 4.5-6.9 31.2 31.2 0 0 1 8-1.4v-.6a5.2 5.2 0 0 0-.6-3 2.6 2.6 0 0 0-2.3-1.1 3.1 3.1 0 0 0-3.4 2.5c-.1.4-.3.8-.7.8l-4.1-.5a.6.6 0 0 1-.6-.8c.9-5 5.4-6.5 9.4-6.5a9.9 9.9 0 0 1 6.4 2.1c2 1.9 1.8 4.5 1.8 7.3v6.5a6.5 6.5 0 0 0 1.6 4 .8.8 0 0 1 0 1.1l-3.3 2.7zM16.4 71.5a8.8 8.8 0 0 1-.8 4.5 3.5 3.5 0 0 1-2.9 1.9c-1.6 0-2.6-1.3-2.6-3.1 0-3.6 3.2-4.2 6.3-4.2zm4.2 10.2a.8.8 0 0 1-1 .1 9.2 9.2 0 0 1-2.4-2.8 8.5 8.5 0 0 1-7 3.1c-3.5 0-6.3-2.2-6.3-6.6a7.3 7.3 0 0 1 4.5-6.9 31.2 31.2 0 0 1 8-1.4v-.6a5.2 5.2 0 0 0-.6-3 2.8 2.8 0 0 0-2.3-1.1 3.3 3.3 0 0 0-3.4 2.6c-.1.3-.3.7-.7.7l-4.1-.4c-.4-.1-.7-.4-.6-.8.9-5 5.4-6.5 9.4-6.5a9.6 9.6 0 0 1 6.3 2.1c2.1 1.9 1.9 4.5 1.9 7.3V74a5.9 5.9 0 0 0 1.6 4 .8.8 0 0 1 0 1.1l-3.3 2.7z"/></g></svg>