<svg xmlns="http://www.w3.org/2000/svg" width="2in" height="2in" viewBox="0 0 144 144"><rect width="92.1" height="10.14" x="45.5" y="97.2" stroke="#000" stroke-miterlimit="10" stroke-width="1.38" rx="3"/><path stroke="#000" stroke-miterlimit="10" stroke-width="1.38" d="M54 103.5l-6.3 3c-.9.4-2-.2-2.3-1.5L20.2 11.4a2.8 2.8 0 0 1 1.1-3.1l6.3-3c.9-.5 2 .2 2.3 1.4l25.2 93.6a3 3 0 0 1-1.1 3.2z"/><path stroke="#000" stroke-miterlimit="10" stroke-width="1.38" d="M28.2 16.4l-25.1-.8C3.1 9.2 7 4.1 11.8 4.3l15.8.5c.4 0 .7.5.7 1z"/><path fill="none" stroke="#000" stroke-miterlimit="10" stroke-width="5.16" d="M35.1 19.9l96.9.4c3.1 0 5.2 3.2 4.3 6.3l-13.4 44.6a4.5 4.5 0 0 1-4.3 3.3H44.2a4.5 4.5 0 0 1-4.4-3.8c-3.1-14.9-6.1-29.9-9.1-44.9a4.7 4.7 0 0 1 4.4-5.9zm5.4 36.6h86.8M35.9 38.7l96.2.4m-10.2-18.8v54.2m-16.3-54.2v54.2M89.4 20.3v54.2M73.1 20.3v54.2M56.8 20.3v54.2"/><circle cx="51.9" cy="127" r="12.7" stroke="#000" stroke-miterlimit="10" stroke-width="3.2"/><circle cx="128.2" cy="127" r="12.7" stroke="#000" stroke-miterlimit="10" stroke-width="3.2"/></svg>