<svg height="11in" viewBox="0 0 612 792" width="8.5in" xmlns="http://www.w3.org/2000/svg"><path d="m306 114a237.7 237.7 0 0 1 225.3 164.1 234.7 234.7 0 0 1 11.3 72.5c0 130.7-105.9 236.6-236.6 236.6s-236.6-105.9-236.6-236.6 105.9-236.6 236.6-236.6z" fill="#c1d4d9"/><path d="m423.7 402.6c0 58.6-51.6 106.2-115.3 106.2s-115.2-47.6-115.2-106.2a99 99 0 0 1 4.1-28.1v-.2l7.3-17.8h.1q27.6-54.1 54.8-108.5 22.5-45 44.8-90.1a1.6 1.6 0 0 1 2.1-.8 1.5 1.5 0 0 1 .8.8q19.4 43 43.1 88.8c20.3 39.2 41.1 75.7 61.9 109.7v.2l7.2 17.8c0 .1.1.1.1.2a99 99 0 0 1 4.2 28z" fill="#fafafa"/></svg>