<?xml version="1.0" encoding="utf-8"?>
<!-- Generator: Adobe Illustrator 23.1.1, SVG Export Plug-In . SVG Version: 6.00 Build 0)  -->
<svg version="1.1" id="Layer_1" xmlns="http://www.w3.org/2000/svg" xmlns:xlink="http://www.w3.org/1999/xlink" x="0px" y="0px"
	 viewBox="0 0 256 256" style="enable-background:new 0 0 256 256;" xml:space="preserve">
<style type="text/css">
	.st0{fill:#C1D4D9;}
	.st1{fill:#FAFAFA;}
</style>
<path id="Path_238" class="st0" d="M128,2.9c54.3,0.1,102.3,35.1,119.1,86.7c4,12.4,6,25.3,6,38.3c0,69.1-56,125.1-125.1,125.1
	S2.9,197.1,2.9,128C2.9,58.9,58.9,2.9,128,2.9z"/>
<path id="Path_5" class="st1" d="M190.2,155.5c0,31-27.3,56.1-60.9,56.1s-60.9-25.1-60.9-56.1c0-5,0.7-10,2.2-14.9c0,0,0-0.1,0-0.1
	l3.8-9.4l0-0.1c9.7-19.1,19.4-38.2,29-57.3c7.9-15.9,15.8-31.7,23.7-47.6c0.2-0.4,0.7-0.6,1.1-0.4c0.2,0.1,0.3,0.2,0.4,0.4
	c6.8,15.2,14.4,30.8,22.8,47c10.8,20.7,21.8,40,32.7,58c0,0,0,0.1,0.1,0.1l3.8,9.4c0,0,0,0.1,0,0.1
	C189.5,145.4,190.2,150.4,190.2,155.5z"/>
</svg>
