<svg xmlns="http://www.w3.org/2000/svg"><symbol id="facebook" viewBox="0 0 144 144"><path d="M85.4 41.8c4.9 1.4 9.3 3.7 11.4 8.6a19.5 19.5 0 0 1 1.9 7.8c.2 10.2.2 20.4.1 30.5s-6.9 16.5-16.6 16.6H51.9c-9.8-.1-16.6-6.9-16.6-16.8V59.2c0-9.1 4-14.5 12.8-17.1.2 0 .4-.2.6-.3zm-9.5 11.9c-3.9.2-7.7-.8-11 1.4s-3.2 6.6-3.5 10.3l-3.2.2v7.8l3.9.3v19.4h7.4V73.5h6.1c.2-2.7.4-5.2.6-8.1h-6.3c.2-1.6 0-3.6.6-4s3.5-1 5.4-1.4z"/></symbol><symbol id="credit-card" viewBox="0 0 144 144"><path d="M126.2 31.1H17.8A11.2 11.2 0 0 0 6.7 42.3v63.9a11.2 11.2 0 0 0 11.1 11.1h108.4a11.2 11.2 0 0 0 11.1-11.1V42.3a11 11 0 0 0-10.8-11.2zM22.6 47.3h16.2a6.5 6.5 0 0 1 .2 13H22.6a6.6 6.6 0 0 1-6.4-6.5 6.4 6.4 0 0 1 6.3-6.5zM128 92.4H16.2V74.2H128z"/></symbol><symbol id="cart" viewBox="0 0 144 144"><rect width="92.1" height="10.14" x="45.5" y="97.2" stroke="#000" stroke-miterlimit="10" stroke-width="1.38" rx="3"/><path stroke="#000" stroke-miterlimit="10" stroke-width="1.38" d="M54 103.5l-6.3 3c-.9.4-2-.2-2.3-1.5L20.2 11.4a2.8 2.8 0 0 1 1.1-3.1l6.3-3c.9-.5 2 .2 2.3 1.4l25.2 93.6a3 3 0 0 1-1.1 3.2z"/><path stroke="#000" stroke-miterlimit="10" stroke-width="1.38" d="M28.2 16.4l-25.1-.8C3.1 9.2 7 4.1 11.8 4.3l15.8.5c.4 0 .7.5.7 1z"/><path fill="none" stroke="#000" stroke-miterlimit="10" stroke-width="5.16" d="M35.1 19.9l96.9.4c3.1 0 5.2 3.2 4.3 6.3l-13.4 44.6a4.5 4.5 0 0 1-4.3 3.3H44.2a4.5 4.5 0 0 1-4.4-3.8c-3.1-14.9-6.1-29.9-9.1-44.9a4.7 4.7 0 0 1 4.4-5.9zm5.4 36.6h86.8M35.9 38.7l96.2.4m-10.2-18.8v54.2m-16.3-54.2v54.2M89.4 20.3v54.2M73.1 20.3v54.2M56.8 20.3v54.2"/><circle cx="51.9" cy="127" r="12.7" stroke="#000" stroke-miterlimit="10" stroke-width="3.2"/><circle cx="128.2" cy="127" r="12.7" stroke="#000" stroke-miterlimit="10" stroke-width="3.2"/></symbol><symbol id="hamburger" viewBox="0 0 144 144"><rect width="127" height="15.09" x="8.5" y="42.3" rx="1"/><rect width="127" height="15.09" x="8.5" y="70.1" rx="1"/><rect width="127" height="15.09" x="8.5" y="97.9" rx="1"/></symbol><symbol id="insta" viewBox="0 0 144 144"><path d="M90.6 38.9c5.4 1.3 10.1 3.8 12.4 9.1a21 21 0 0 1 2 8.1c.2 10.6.2 21.2.1 31.8s-7.1 17-17 17.1-21.5.2-32.3 0S39 97.8 38.9 87.9s0-20.7 0-31 4.6-15.4 13.8-17.7l.7-.3zM92.4 72c0-4 .1-8.1 0-12.1s-3-8.3-8.4-8.4q-12.1-.2-24.3 0c-5.2.1-8.1 3.1-8.2 8.3q-.2 12.2 0 24.3c0 5.3 3 8.3 8.4 8.3 8 .2 16 .2 24 .1 5.5-.1 8.4-3.1 8.5-8.6.1-3.9 0-7.9 0-11.9z"/><path d="M55.2 67.9h6.1c-1.4 5.6-.3 10.3 4.6 13.5a10.4 10.4 0 0 0 11.9.1c5-3.2 6.3-7.9 4.8-13.6h6c0 5.9.1 11.7-.1 17.5-.1 2-1.8 3.2-3.8 3.3H59.2c-2.5 0-3.9-1.6-4-4-.1-5.6 0-11.1 0-16.8z"/><path d="M72 64.7a7.3 7.3 0 1 1-7.3 7.5 7.3 7.3 0 0 1 7.3-7.5zm15.6-8.5V63H81v-6.8z"/></symbol><symbol id="twitter" viewBox="0 0 144 144"><path d="M103.5 92.7c-1.5 4.9-3.7 9.2-8.6 11.3a19 19 0 0 1-7.7 1.9c-10.1.2-20.2.2-30.2.1s-16.4-6.8-16.5-16.7V62.1c0-11.2 3.2-15.6 13.8-19h35.4a53.4 53.4 0 0 1 7.7 3.5c3.5 2.2 4.9 6 6.1 9.7zM90.3 60.2l-.4-.5a6.2 6.2 0 0 1-7 .1c-5-2.9-11 .9-11.4 6.6v2.1c-6.7-.3-11.8-3.5-16.4-8.1-1.9 4-.9 7.2 1.9 10.3l-2.9-.5c.1 3.8 2.5 5.9 5.6 7.7l-2.8.2c1.2 3.4 3.8 4.6 6.8 5.4v.9l-10 2.9c11.8 7.3 30.6 1.4 33.5-16.4.3-2.6.3-5.1 2.9-6.6.3-.2.5-.8.9-1.4l-3.4.8z"/></symbol><symbol id="paypal" viewBox="0 0 144 144"><path d="M54.8 63.8c-.4 2.8-2.6 2.8-4.6 2.8H49l.8-5.2c.1-.3.3-.6.6-.6h.6c1.4 0 2.7 0 3.4.8a2.5 2.5 0 0 1 .4 2.2zm-.9-7.3h-7.8a1.2 1.2 0 0 0-1.1.9l-3.2 20a.8.8 0 0 0 .6.8h3.8a1.1 1.1 0 0 0 1.1-1l.9-5.4a1.1 1.1 0 0 1 1-.9h2.5c5.1 0 8.1-2.5 8.9-7.4a6.6 6.6 0 0 0-1-5.1 7.5 7.5 0 0 0-5.7-1.9zM72 71a4.2 4.2 0 0 1-4.2 3.6 3.4 3.4 0 0 1-2.5-1.1 3 3 0 0 1-.6-2.6 4.2 4.2 0 0 1 4.2-3.6 3 3 0 0 1 2.5 1A3.2 3.2 0 0 1 72 71zm5.2-7.3h-3.7a.6.6 0 0 0-.6.6l-.2 1-.3-.4c-.8-1.2-2.6-1.5-4.4-1.5a8.4 8.4 0 0 0-8.3 7.5 6.9 6.9 0 0 0 1.4 5.7 5.9 5.9 0 0 0 4.7 1.9 7.3 7.3 0 0 0 5.2-2.1l-.2 1a.8.8 0 0 0 .6.8h3.4a1.1 1.1 0 0 0 1.1-1l2-12.8a.7.7 0 0 0-.6-.7zm19.9 0h-3.7a1.1 1.1 0 0 0-.9.5l-5.2 7.6-2.2-7.3a1.1 1.1 0 0 0-1-.8h-3.7a.7.7 0 0 0-.7.7v.2l4.1 12.1-3.8 5.5a.6.6 0 0 0 .1.9l.4.2h3.8a1.2 1.2 0 0 0 .9-.5l12.5-18.1a.7.7 0 0 0-.2-.9zm13.4.1c-.4 2.8-2.6 2.8-4.7 2.8h-1.2l.9-5.2a.6.6 0 0 1 .6-.6h.6c1.4 0 2.7 0 3.4.8a2.9 2.9 0 0 1 .4 2.2zm-.9-7.3h-7.8a1.1 1.1 0 0 0-1.1.9l-3.2 20a.8.8 0 0 0 .6.8h4.1a.7.7 0 0 0 .7-.7l.9-5.6a1.1 1.1 0 0 1 1.1-1h2.4c5.2 0 8.2-2.5 8.9-7.4a6 6 0 0 0-1-5c-1-1.3-3-2-5.6-2zM127.7 71a4.2 4.2 0 0 1-4.2 3.6 3.3 3.3 0 0 1-2.5-1.1 3 3 0 0 1-.6-2.6 4.2 4.2 0 0 1 4.2-3.6 2.9 2.9 0 0 1 3.1 3.7zm5.2-7.3h-3.7a.7.7 0 0 0-.7.6v1l-.3-.4c-.8-1.2-2.6-1.5-4.4-1.5a8.3 8.3 0 0 0-8.3 7.5 6.9 6.9 0 0 0 1.4 5.7 5.9 5.9 0 0 0 4.7 1.9 6.9 6.9 0 0 0 5.1-2.1v1c-.1.4.2.7.6.8h3.4a1 1 0 0 0 1-1l2.1-12.8a.7.7 0 0 0-.6-.7zm4.4-6.7l-3.2 20.4a.8.8 0 0 0 .6.8h3.3a1.2 1.2 0 0 0 1.1-1l3.2-20a.7.7 0 0 0-.6-.7H138a.8.8 0 0 0-.7.5zm-109.8.5a1.7 1.7 0 0 0-.1.7c-1.5 7.2-6.3 9.7-12.5 9.7h-3.1a1.4 1.4 0 0 0-1.5 1.3L8.7 79.4l-.5 2.9a1 1 0 0 0 .7.9h5.7a1.4 1.4 0 0 0 1.3-1.1v-.3l1.1-6.7v-.3a1.2 1.2 0 0 1 1.3-1.1h.8c5.4 0 9.6-2.2 10.9-8.6.5-2.6.2-4.8-1.1-6.4a7.9 7.9 0 0 0-1.4-1.2z"/><path fill="#f8f8f8" d="M26 56.9h-.7l-.7-.2H13.5a.7.7 0 0 0-.6.1 1.4 1.4 0 0 0-.8 1l-1.7 11.1v.3a1.5 1.5 0 0 1 1.5-1.3H15c6.2 0 11-2.5 12.4-9.7a1.5 1.5 0 0 0 .1-.7l-1.1-.4z"/><path d="M12.1 57.6a1.3 1.3 0 0 1 .7-1 .7.7 0 0 1 .6-.1h8.4a13.1 13.1 0 0 1 2.8.1l.7.2h1l1.1.5c.4-2.7 0-4.5-1.4-6.1s-4.5-2.6-8.2-2.6H7.1a1.5 1.5 0 0 0-1.5 1.3L1.1 78.4a1 1 0 0 0 .8 1h6.8l1.6-10.5z"/></symbol><symbol id="amazon" viewBox="0 0 144 144"><g fill-rule="evenodd"><path d="M88.4 90.1C80.5 95.9 69 99 59.1 99a52.8 52.8 0 0 1-35.7-13.6c-.7-.7-.1-1.6.8-1a72.1 72.1 0 0 0 35.7 9.4 69.1 69.1 0 0 0 27.3-5.6c1.4-.5 2.5.9 1.2 1.9z"/><path d="M91.7 86.4c-1-1.3-6.7-.7-9.3-.3-.7.1-.9-.6-.1-1.1 4.5-3.2 11.9-2.2 12.8-1.2s-.3 8.5-4.5 12.1c-.7.5-1.3.2-1-.5.9-2.4 3.1-7.7 2.1-9zm-9.1-23.9v-3.1a.7.7 0 0 1 .7-.7h13.9a.7.7 0 0 1 .8.7V62a4.5 4.5 0 0 1-1 2l-7.2 10.2a16.6 16.6 0 0 1 7.9 1.7 1.5 1.5 0 0 1 .7 1.2v3.3c0 .5-.5 1-1 .7a15.7 15.7 0 0 0-14.6.1.9.9 0 0 1-1-.5v-3.4a3.1 3.1 0 0 1 .5-2.1l8.4-11.9h-7.2a.8.8 0 0 1-.9-.8zM32.1 81.8h-4.2a.8.8 0 0 1-.8-.7V59.5a.7.7 0 0 1 .8-.7h3.9a.8.8 0 0 1 .8.7v2.8h.1a5.5 5.5 0 0 1 5.5-4c2.7 0 4.3 1.3 5.5 4a5.9 5.9 0 0 1 5.8-4 5.6 5.6 0 0 1 4.9 2.4c1.3 1.8 1 4.4 1 6.7v13.7a.8.8 0 0 1-.8.8h-4.2a.8.8 0 0 1-.7-.8V69.6c0-1.3 0-2.7-.1-4a2.3 2.3 0 0 0-2.5-1.9 3.1 3.1 0 0 0-2.6 1.8 13.9 13.9 0 0 0-.3 4.1v11.5a.9.9 0 0 1-.8.8h-4.2a.8.8 0 0 1-.8-.8V69.6c0-2.3.4-5.9-2.6-5.9s-2.9 3.4-2.9 5.9v11.5a.8.8 0 0 1-.8.7zM110 58.2c6.2 0 9.6 5.4 9.6 12.3s-3.8 11.8-9.7 11.8-9.4-5.4-9.4-12.1 3.4-12 9.5-12zm0 4.5c-3.1 0-3.3 4.2-3.3 6.9s0 8.2 3.3 8.2 3.4-4.5 3.4-7.3a18.1 18.1 0 0 0-.6-5.7 2.7 2.7 0 0 0-2.8-2.1zm17.7 19.1h-4.2a.8.8 0 0 1-.8-.7V59.4a.8.8 0 0 1 .8-.7h4a.9.9 0 0 1 .7.6v3.3h.1c1.2-2.9 2.8-4.3 5.7-4.3a5.6 5.6 0 0 1 5 2.5c1.1 1.7 1.1 4.6 1.1 6.7v13.7c-.1.4-.4.7-.8.6h-4.2a.9.9 0 0 1-.8-.6V69.4c0-2.4.3-5.8-2.6-5.8a2.7 2.7 0 0 0-2.5 1.7 11.4 11.4 0 0 0-.7 4.1v11.7a.8.8 0 0 1-.8.7zM71.6 71.5a10 10 0 0 1-.8 4.5 3.7 3.7 0 0 1-2.9 1.9c-1.6 0-2.6-1.3-2.6-3.1 0-3.6 3.2-4.2 6.3-4.2zm4.2 10.2a.8.8 0 0 1-1 .1 9.2 9.2 0 0 1-2.4-2.8 8.5 8.5 0 0 1-7 3.1c-3.5 0-6.3-2.2-6.3-6.6a7.3 7.3 0 0 1 4.5-6.9 31.2 31.2 0 0 1 8-1.4v-.6a5.2 5.2 0 0 0-.6-3 2.6 2.6 0 0 0-2.3-1.1 3.1 3.1 0 0 0-3.4 2.5c-.1.4-.3.8-.7.8l-4.1-.5a.6.6 0 0 1-.6-.8c.9-5 5.4-6.5 9.4-6.5a9.9 9.9 0 0 1 6.4 2.1c2 1.9 1.8 4.5 1.8 7.3v6.5a6.5 6.5 0 0 0 1.6 4 .8.8 0 0 1 0 1.1l-3.3 2.7zM16.4 71.5a8.8 8.8 0 0 1-.8 4.5 3.5 3.5 0 0 1-2.9 1.9c-1.6 0-2.6-1.3-2.6-3.1 0-3.6 3.2-4.2 6.3-4.2zm4.2 10.2a.8.8 0 0 1-1 .1 9.2 9.2 0 0 1-2.4-2.8 8.5 8.5 0 0 1-7 3.1c-3.5 0-6.3-2.2-6.3-6.6a7.3 7.3 0 0 1 4.5-6.9 31.2 31.2 0 0 1 8-1.4v-.6a5.2 5.2 0 0 0-.6-3 2.8 2.8 0 0 0-2.3-1.1 3.3 3.3 0 0 0-3.4 2.6c-.1.3-.3.7-.7.7l-4.1-.4c-.4-.1-.7-.4-.6-.8.9-5 5.4-6.5 9.4-6.5a9.6 9.6 0 0 1 6.3 2.1c2.1 1.9 1.9 4.5 1.9 7.3V74a5.9 5.9 0 0 0 1.6 4 .8.8 0 0 1 0 1.1l-3.3 2.7z"/></g></symbol></svg>