<svg xmlns="http://www.w3.org/2000/svg" width="2in" height="2in" viewBox="0 0 144 144"><path d="M90.6 38.9c5.4 1.3 10.1 3.8 12.4 9.1a21 21 0 0 1 2 8.1c.2 10.6.2 21.2.1 31.8s-7.1 17-17 17.1-21.5.2-32.3 0S39 97.8 38.9 87.9s0-20.7 0-31 4.6-15.4 13.8-17.7l.7-.3zM92.4 72c0-4 .1-8.1 0-12.1s-3-8.3-8.4-8.4q-12.1-.2-24.3 0c-5.2.1-8.1 3.1-8.2 8.3q-.2 12.2 0 24.3c0 5.3 3 8.3 8.4 8.3 8 .2 16 .2 24 .1 5.5-.1 8.4-3.1 8.5-8.6.1-3.9 0-7.9 0-11.9z"/><path d="M55.2 67.9h6.1c-1.4 5.6-.3 10.3 4.6 13.5a10.4 10.4 0 0 0 11.9.1c5-3.2 6.3-7.9 4.8-13.6h6c0 5.9.1 11.7-.1 17.5-.1 2-1.8 3.2-3.8 3.3H59.2c-2.5 0-3.9-1.6-4-4-.1-5.6 0-11.1 0-16.8z"/><path d="M72 64.7a7.3 7.3 0 1 1-7.3 7.5 7.3 7.3 0 0 1 7.3-7.5zm15.6-8.5V63H81v-6.8z"/></svg>