<svg id="Layer_1" data-name="Layer 1" xmlns="http://www.w3.org/2000/svg" width="0.4in" height="0.4in" viewBox="0 0 32 32"><title>logo-32</title><path id="Path_238" data-name="Path 238" d="M16,0A16,16,0,0,1,31.2,11.1,16.2,16.2,0,0,1,32,16,16,16,0,1,1,16,0Z" fill="#c1d4d9"/><path id="Path_5" data-name="Path 5" d="M24,19.5c0,4-3.5,7.2-7.8,7.2s-7.8-3.2-7.8-7.2a12.3,12.3,0,0,1,.2-1.9h.1l.4-1.2h0l3.8-7.3,3-6.1a.1.1,0,0,1,.2,0C17,4.9,17.9,6.9,19,9s2.8,5.1,4.2,7.4h0l.5,1.2h0A6.3,6.3,0,0,1,24,19.5Z" fill="#fafafa"/></svg>