<svg id="Layer_1" data-name="Layer 1" xmlns="http://www.w3.org/2000/svg" width="0.9in" height="0.9in" viewBox="0 0 64 64"><title>logo-64</title><path id="Path_238" data-name="Path 238" d="M32,1.8A30.4,30.4,0,0,1,60.8,22.7,32.8,32.8,0,0,1,62.2,32,30.2,30.2,0,1,1,32,1.8Z" fill="#c1d4d9"/><path id="Path_5" data-name="Path 5" d="M47,38.6c0,7.5-6.6,13.6-14.7,13.6S17.6,46.1,17.6,38.6a14.9,14.9,0,0,1,.5-3.6h0l.9-2.3h.1c2.3-4.6,4.6-9.2,7-13.8L31.8,7.4c0-.1.1-.2.2-.1s.1,0,.1.1c1.7,3.6,3.5,7.4,5.6,11.3s5.2,9.7,7.9,14h0l.9,2.2h0A11.2,11.2,0,0,1,47,38.6Z" fill="#fafafa"/></svg>