<?xml version="1.0" encoding="utf-8"?>
<!-- Generator: Adobe Illustrator 23.1.1, SVG Export Plug-In . SVG Version: 6.00 Build 0)  -->
<svg version="1.1" id="Layer_1" xmlns="http://www.w3.org/2000/svg" xmlns:xlink="http://www.w3.org/1999/xlink" x="0px" y="0px"
	 viewBox="0 0 16 16" style="enable-background:new 0 0 16 16;" xml:space="preserve">
<style type="text/css">
	.st0{fill:#C1D4D9;}
	.st1{fill:#FAFAFA;}
</style>
<path id="Path_238" class="st0" d="M-338-237.1c54.3,0.1,102.3,35.1,119.1,86.7c4,12.4,6,25.3,6,38.3c0,69.1-56,125.1-125.1,125.1
	s-125.1-56-125.1-125.1S-407.1-237.1-338-237.1z"/>
<path id="Path_5" class="st1" d="M-275.8-84.5c0,31-27.3,56.1-60.9,56.1s-60.9-25.1-60.9-56.1c0-5,0.7-10,2.2-14.9c0,0,0-0.1,0-0.1
	l3.8-9.4l0-0.1c9.7-19.1,19.4-38.2,29-57.3c7.9-15.9,15.8-31.7,23.7-47.6c0.2-0.4,0.7-0.6,1.1-0.4c0.2,0.1,0.3,0.2,0.4,0.4
	c6.8,15.2,14.4,30.8,22.8,47c10.8,20.7,21.8,40,32.7,58c0,0,0,0.1,0.1,0.1l3.8,9.4c0,0,0,0.1,0,0.1
	C-276.5-94.6-275.8-89.6-275.8-84.5z"/>
<path id="Path_238_1_" class="st0" d="M-140-46.2c13.1,0,24.7,8.5,28.8,21c1,3,1.5,6.1,1.4,9.3c0,16.7-13.5,30.2-30.2,30.2
	S-170.2,0.7-170.2-16S-156.7-46.2-140-46.2z"/>
<path id="Path_5_1_" class="st1" d="M-125-9.4c0,7.5-6.6,13.6-14.7,13.6c-8.1,0-14.7-6.1-14.7-13.6c0-1.2,0.2-2.4,0.5-3.6
	c0,0,0,0,0,0l0.9-2.3l0,0c2.4-4.6,4.7-9.2,7-13.9c1.9-3.8,3.8-7.7,5.7-11.5c0-0.1,0.2-0.1,0.3-0.1c0,0,0.1,0.1,0.1,0.1
	c1.7,3.7,3.5,7.4,5.5,11.3c2.6,5,5.3,9.7,7.9,14c0,0,0,0,0,0l0.9,2.3c0,0,0,0,0,0C-125.1-11.8-125-10.6-125-9.4z"/>
<path id="Path_238_2_" class="st0" d="M-54-16c6.9,0,13.1,4.5,15.2,11.1C-38.3-3.3-38-1.7-38,0c0,8.8-7.2,16-16,16S-70,8.8-70,0
	S-62.8-16-54-16z"/>
<path id="Path_5_2_" class="st1" d="M-46,3.5c0,4-3.5,7.2-7.8,7.2s-7.8-3.2-7.8-7.2c0-0.6,0.1-1.3,0.3-1.9c0,0,0,0,0,0l0.5-1.2l0,0
	c1.2-2.4,2.5-4.9,3.7-7.3c1-2,2-4.1,3-6.1c0-0.1,0.1-0.1,0.1-0.1c0,0,0,0,0.1,0.1c0.9,1.9,1.8,3.9,2.9,6c1.4,2.6,2.8,5.1,4.2,7.4
	c0,0,0,0,0,0l0.5,1.2c0,0,0,0,0,0C-46.1,2.2-46,2.9-46,3.5z"/>
<path id="Path_238_3_" class="st0" d="M8,0c3.5,0,6.5,2.2,7.6,5.5C15.9,6.3,16,7.2,16,8c0,4.4-3.6,8-8,8s-8-3.6-8-8S3.6,0,8,0z"/>
<path id="Path_5_3_" class="st1" d="M12,9.8c0,2-1.7,3.6-3.9,3.6s-3.9-1.6-3.9-3.6c0-0.3,0-0.6,0.1-1c0,0,0,0,0,0l0.2-0.6l0,0
	C5.2,7,5.8,5.8,6.4,4.5c0.5-1,1-2,1.5-3c0,0,0,0,0.1,0c0,0,0,0,0,0c0.4,1,0.9,2,1.5,3c0.7,1.3,1.4,2.6,2.1,3.7c0,0,0,0,0,0l0.2,0.6
	c0,0,0,0,0,0C11.9,9.1,12,9.4,12,9.8z"/>
</svg>
