<svg xmlns="http://www.w3.org/2000/svg" width="2in" height="2in" viewBox="0 0 144 144"><path d="M54.8 63.8c-.4 2.8-2.6 2.8-4.6 2.8H49l.8-5.2c.1-.3.3-.6.6-.6h.6c1.4 0 2.7 0 3.4.8a2.5 2.5 0 0 1 .4 2.2zm-.9-7.3h-7.8a1.2 1.2 0 0 0-1.1.9l-3.2 20a.8.8 0 0 0 .6.8h3.8a1.1 1.1 0 0 0 1.1-1l.9-5.4a1.1 1.1 0 0 1 1-.9h2.5c5.1 0 8.1-2.5 8.9-7.4a6.6 6.6 0 0 0-1-5.1 7.5 7.5 0 0 0-5.7-1.9zM72 71a4.2 4.2 0 0 1-4.2 3.6 3.4 3.4 0 0 1-2.5-1.1 3 3 0 0 1-.6-2.6 4.2 4.2 0 0 1 4.2-3.6 3 3 0 0 1 2.5 1A3.2 3.2 0 0 1 72 71zm5.2-7.3h-3.7a.6.6 0 0 0-.6.6l-.2 1-.3-.4c-.8-1.2-2.6-1.5-4.4-1.5a8.4 8.4 0 0 0-8.3 7.5 6.9 6.9 0 0 0 1.4 5.7 5.9 5.9 0 0 0 4.7 1.9 7.3 7.3 0 0 0 5.2-2.1l-.2 1a.8.8 0 0 0 .6.8h3.4a1.1 1.1 0 0 0 1.1-1l2-12.8a.7.7 0 0 0-.6-.7zm19.9 0h-3.7a1.1 1.1 0 0 0-.9.5l-5.2 7.6-2.2-7.3a1.1 1.1 0 0 0-1-.8h-3.7a.7.7 0 0 0-.7.7v.2l4.1 12.1-3.8 5.5a.6.6 0 0 0 .1.9l.4.2h3.8a1.2 1.2 0 0 0 .9-.5l12.5-18.1a.7.7 0 0 0-.2-.9zm13.4.1c-.4 2.8-2.6 2.8-4.7 2.8h-1.2l.9-5.2a.6.6 0 0 1 .6-.6h.6c1.4 0 2.7 0 3.4.8a2.9 2.9 0 0 1 .4 2.2zm-.9-7.3h-7.8a1.1 1.1 0 0 0-1.1.9l-3.2 20a.8.8 0 0 0 .6.8h4.1a.7.7 0 0 0 .7-.7l.9-5.6a1.1 1.1 0 0 1 1.1-1h2.4c5.2 0 8.2-2.5 8.9-7.4a6 6 0 0 0-1-5c-1-1.3-3-2-5.6-2zM127.7 71a4.2 4.2 0 0 1-4.2 3.6 3.3 3.3 0 0 1-2.5-1.1 3 3 0 0 1-.6-2.6 4.2 4.2 0 0 1 4.2-3.6 2.9 2.9 0 0 1 3.1 3.7zm5.2-7.3h-3.7a.7.7 0 0 0-.7.6v1l-.3-.4c-.8-1.2-2.6-1.5-4.4-1.5a8.3 8.3 0 0 0-8.3 7.5 6.9 6.9 0 0 0 1.4 5.7 5.9 5.9 0 0 0 4.7 1.9 6.9 6.9 0 0 0 5.1-2.1v1c-.1.4.2.7.6.8h3.4a1 1 0 0 0 1-1l2.1-12.8a.7.7 0 0 0-.6-.7zm4.4-6.7l-3.2 20.4a.8.8 0 0 0 .6.8h3.3a1.2 1.2 0 0 0 1.1-1l3.2-20a.7.7 0 0 0-.6-.7H138a.8.8 0 0 0-.7.5zm-109.8.5a1.7 1.7 0 0 0-.1.7c-1.5 7.2-6.3 9.7-12.5 9.7h-3.1a1.4 1.4 0 0 0-1.5 1.3L8.7 79.4l-.5 2.9a1 1 0 0 0 .7.9h5.7a1.4 1.4 0 0 0 1.3-1.1v-.3l1.1-6.7v-.3a1.2 1.2 0 0 1 1.3-1.1h.8c5.4 0 9.6-2.2 10.9-8.6.5-2.6.2-4.8-1.1-6.4a7.9 7.9 0 0 0-1.4-1.2z"/><path fill="#f8f8f8" d="M26 56.9h-.7l-.7-.2H13.5a.7.7 0 0 0-.6.1 1.4 1.4 0 0 0-.8 1l-1.7 11.1v.3a1.5 1.5 0 0 1 1.5-1.3H15c6.2 0 11-2.5 12.4-9.7a1.5 1.5 0 0 0 .1-.7l-1.1-.4z"/><path d="M12.1 57.6a1.3 1.3 0 0 1 .7-1 .7.7 0 0 1 .6-.1h8.4a13.1 13.1 0 0 1 2.8.1l.7.2h1l1.1.5c.4-2.7 0-4.5-1.4-6.1s-4.5-2.6-8.2-2.6H7.1a1.5 1.5 0 0 0-1.5 1.3L1.1 78.4a1 1 0 0 0 .8 1h6.8l1.6-10.5z"/></svg>