<svg xmlns="http://www.w3.org/2000/svg" width="2in" height="2in" viewBox="0 0 144 144"><path d="M103.5 92.7c-1.5 4.9-3.7 9.2-8.6 11.3a19 19 0 0 1-7.7 1.9c-10.1.2-20.2.2-30.2.1s-16.4-6.8-16.5-16.7V62.1c0-11.2 3.2-15.6 13.8-19h35.4a53.4 53.4 0 0 1 7.7 3.5c3.5 2.2 4.9 6 6.1 9.7zM90.3 60.2l-.4-.5a6.2 6.2 0 0 1-7 .1c-5-2.9-11 .9-11.4 6.6v2.1c-6.7-.3-11.8-3.5-16.4-8.1-1.9 4-.9 7.2 1.9 10.3l-2.9-.5c.1 3.8 2.5 5.9 5.6 7.7l-2.8.2c1.2 3.4 3.8 4.6 6.8 5.4v.9l-10 2.9c11.8 7.3 30.6 1.4 33.5-16.4.3-2.6.3-5.1 2.9-6.6.3-.2.5-.8.9-1.4l-3.4.8z"/></svg>